<mxfile host="app.diagrams.net" modified="2022-01-05T13:07:56.257Z" agent="5.0 (X11; Linux x86_64) AppleWebKit/537.36 (KHTML, like Gecko) Chrome/91.0.4472.114 Safari/537.36" etag="eMl0pn0llikFDRVGiWnA" version="15.5.9" type="github" pages="2">
  <diagram id="NPu6f1-hnPz6K-y14Unv" name="initial_revision">
    <mxGraphModel dx="447" dy="212" grid="1" gridSize="10" guides="1" tooltips="1" connect="1" arrows="1" fold="1" page="1" pageScale="1" pageWidth="827" pageHeight="1169" math="0" shadow="0">
      <root>
        <mxCell id="0" />
        <mxCell id="1" parent="0" />
        <mxCell id="7gtEhEpOznMv9OEopn4y-2" value="schema.py" style="rounded=0;whiteSpace=wrap;html=1;verticalAlign=top;container=1;resizable=1;recursiveResize=0;" vertex="1" parent="1">
          <mxGeometry x="70" y="110" width="1010" height="1091" as="geometry" />
        </mxCell>
        <mxCell id="7gtEhEpOznMv9OEopn4y-3" value="SchemaItem" style="swimlane;fontStyle=1;align=center;verticalAlign=top;childLayout=stackLayout;horizontal=1;startSize=26;horizontalStack=0;resizeParent=1;resizeParentMax=0;resizeLast=0;collapsible=1;marginBottom=0;" vertex="1" parent="7gtEhEpOznMv9OEopn4y-2">
          <mxGeometry x="34" y="50" width="272" height="138" as="geometry" />
        </mxCell>
        <mxCell id="7gtEhEpOznMv9OEopn4y-5" value="" style="line;strokeWidth=1;fillColor=none;align=left;verticalAlign=middle;spacingTop=-1;spacingLeft=3;spacingRight=3;rotatable=0;labelPosition=right;points=[];portConstraint=eastwest;" vertex="1" parent="7gtEhEpOznMv9OEopn4y-3">
          <mxGeometry y="26" width="272" height="8" as="geometry" />
        </mxCell>
        <mxCell id="7gtEhEpOznMv9OEopn4y-6" value="+ _init_items(self, *args): NoneType" style="text;strokeColor=none;fillColor=none;align=left;verticalAlign=top;spacingLeft=4;spacingRight=4;overflow=hidden;rotatable=0;points=[[0,0.5],[1,0.5]];portConstraint=eastwest;" vertex="1" parent="7gtEhEpOznMv9OEopn4y-3">
          <mxGeometry y="34" width="272" height="26" as="geometry" />
        </mxCell>
        <mxCell id="7gtEhEpOznMv9OEopn4y-8" value="+ accept_visitor(self, visitor): raise NotImplError" style="text;strokeColor=none;fillColor=none;align=left;verticalAlign=top;spacingLeft=4;spacingRight=4;overflow=hidden;rotatable=0;points=[[0,0.5],[1,0.5]];portConstraint=eastwest;" vertex="1" parent="7gtEhEpOznMv9OEopn4y-3">
          <mxGeometry y="60" width="272" height="26" as="geometry" />
        </mxCell>
        <mxCell id="7gtEhEpOznMv9OEopn4y-11" value="+ _set_parent(self, parent): raise NotImplError" style="text;strokeColor=none;fillColor=none;align=left;verticalAlign=top;spacingLeft=4;spacingRight=4;overflow=hidden;rotatable=0;points=[[0,0.5],[1,0.5]];portConstraint=eastwest;" vertex="1" parent="7gtEhEpOznMv9OEopn4y-3">
          <mxGeometry y="86" width="272" height="26" as="geometry" />
        </mxCell>
        <mxCell id="7gtEhEpOznMv9OEopn4y-9" value="+ __getattr(self, key): Any" style="text;strokeColor=none;fillColor=none;align=left;verticalAlign=top;spacingLeft=4;spacingRight=4;overflow=hidden;rotatable=0;points=[[0,0.5],[1,0.5]];portConstraint=eastwest;" vertex="1" parent="7gtEhEpOznMv9OEopn4y-3">
          <mxGeometry y="112" width="272" height="26" as="geometry" />
        </mxCell>
        <mxCell id="7gtEhEpOznMv9OEopn4y-12" value="Table" style="swimlane;fontStyle=1;align=center;verticalAlign=top;childLayout=stackLayout;horizontal=1;startSize=26;horizontalStack=0;resizeParent=1;resizeParentMax=0;resizeLast=0;collapsible=1;marginBottom=0;" vertex="1" parent="7gtEhEpOznMv9OEopn4y-2">
          <mxGeometry x="430" y="50" width="272" height="112" as="geometry" />
        </mxCell>
        <mxCell id="7gtEhEpOznMv9OEopn4y-13" value="" style="line;strokeWidth=1;fillColor=none;align=left;verticalAlign=middle;spacingTop=-1;spacingLeft=3;spacingRight=3;rotatable=0;labelPosition=right;points=[];portConstraint=eastwest;" vertex="1" parent="7gtEhEpOznMv9OEopn4y-12">
          <mxGeometry y="26" width="272" height="8" as="geometry" />
        </mxCell>
        <mxCell id="7gtEhEpOznMv9OEopn4y-14" value="+ __init__(self, name, engine, *args, **params): NoneType" style="text;strokeColor=none;fillColor=none;align=left;verticalAlign=top;spacingLeft=4;spacingRight=4;overflow=hidden;rotatable=0;points=[[0,0.5],[1,0.5]];portConstraint=eastwest;" vertex="1" parent="7gtEhEpOznMv9OEopn4y-12">
          <mxGeometry y="34" width="272" height="26" as="geometry" />
        </mxCell>
        <mxCell id="7gtEhEpOznMv9OEopn4y-15" value="+ accept_visitor(self, visitor): NoneType" style="text;strokeColor=none;fillColor=none;align=left;verticalAlign=top;spacingLeft=4;spacingRight=4;overflow=hidden;rotatable=0;points=[[0,0.5],[1,0.5]];portConstraint=eastwest;" vertex="1" parent="7gtEhEpOznMv9OEopn4y-12">
          <mxGeometry y="60" width="272" height="26" as="geometry" />
        </mxCell>
        <mxCell id="7gtEhEpOznMv9OEopn4y-16" value="+ _set_parent(self, parent): NoneType" style="text;strokeColor=none;fillColor=none;align=left;verticalAlign=top;spacingLeft=4;spacingRight=4;overflow=hidden;rotatable=0;points=[[0,0.5],[1,0.5]];portConstraint=eastwest;" vertex="1" parent="7gtEhEpOznMv9OEopn4y-12">
          <mxGeometry y="86" width="272" height="26" as="geometry" />
        </mxCell>
        <mxCell id="7gtEhEpOznMv9OEopn4y-18" value="Extends" style="endArrow=block;endSize=16;endFill=0;html=1;rounded=0;" edge="1" parent="7gtEhEpOznMv9OEopn4y-2" source="7gtEhEpOznMv9OEopn4y-12" target="7gtEhEpOznMv9OEopn4y-3">
          <mxGeometry width="160" relative="1" as="geometry">
            <mxPoint x="360" y="240" as="sourcePoint" />
            <mxPoint x="520" y="240" as="targetPoint" />
          </mxGeometry>
        </mxCell>
        <mxCell id="7gtEhEpOznMv9OEopn4y-21" value="Column" style="swimlane;fontStyle=1;align=center;verticalAlign=top;childLayout=stackLayout;horizontal=1;startSize=26;horizontalStack=0;resizeParent=1;resizeParentMax=0;resizeLast=0;collapsible=1;marginBottom=0;" vertex="1" parent="7gtEhEpOznMv9OEopn4y-2">
          <mxGeometry x="430" y="223" width="560" height="164" as="geometry" />
        </mxCell>
        <mxCell id="7gtEhEpOznMv9OEopn4y-22" value="" style="line;strokeWidth=1;fillColor=none;align=left;verticalAlign=middle;spacingTop=-1;spacingLeft=3;spacingRight=3;rotatable=0;labelPosition=right;points=[];portConstraint=eastwest;" vertex="1" parent="7gtEhEpOznMv9OEopn4y-21">
          <mxGeometry y="26" width="560" height="8" as="geometry" />
        </mxCell>
        <mxCell id="7gtEhEpOznMv9OEopn4y-23" value="__init__(self, name, type, reference = None, key = None, primary_key = False, *args, **params)" style="text;strokeColor=none;fillColor=none;align=left;verticalAlign=top;spacingLeft=4;spacingRight=4;overflow=hidden;rotatable=0;points=[[0,0.5],[1,0.5]];portConstraint=eastwest;" vertex="1" parent="7gtEhEpOznMv9OEopn4y-21">
          <mxGeometry y="34" width="560" height="26" as="geometry" />
        </mxCell>
        <mxCell id="7gtEhEpOznMv9OEopn4y-26" value="Extends" style="endArrow=block;endSize=16;endFill=0;html=1;rounded=0;" edge="1" parent="7gtEhEpOznMv9OEopn4y-21" target="7gtEhEpOznMv9OEopn4y-3">
          <mxGeometry width="160" relative="1" as="geometry">
            <mxPoint y="57" as="sourcePoint" />
            <mxPoint x="160" y="57" as="targetPoint" />
          </mxGeometry>
        </mxCell>
        <mxCell id="7gtEhEpOznMv9OEopn4y-24" value="+ accept_visitor(self, visitor): NoneType" style="text;strokeColor=none;fillColor=none;align=left;verticalAlign=top;spacingLeft=4;spacingRight=4;overflow=hidden;rotatable=0;points=[[0,0.5],[1,0.5]];portConstraint=eastwest;" vertex="1" parent="7gtEhEpOznMv9OEopn4y-21">
          <mxGeometry y="60" width="560" height="26" as="geometry" />
        </mxCell>
        <mxCell id="7gtEhEpOznMv9OEopn4y-25" value="+ _set_parent(self, table): NoneType" style="text;strokeColor=none;fillColor=none;align=left;verticalAlign=top;spacingLeft=4;spacingRight=4;overflow=hidden;rotatable=0;points=[[0,0.5],[1,0.5]];portConstraint=eastwest;" vertex="1" parent="7gtEhEpOznMv9OEopn4y-21">
          <mxGeometry y="86" width="560" height="26" as="geometry" />
        </mxCell>
        <mxCell id="7gtEhEpOznMv9OEopn4y-27" value="+ _make_proxy(self, selectable, name = None):Â Column" style="text;strokeColor=none;fillColor=none;align=left;verticalAlign=top;spacingLeft=4;spacingRight=4;overflow=hidden;rotatable=0;points=[[0,0.5],[1,0.5]];portConstraint=eastwest;fontStyle=0" vertex="1" parent="7gtEhEpOznMv9OEopn4y-21">
          <mxGeometry y="112" width="560" height="26" as="geometry" />
        </mxCell>
        <mxCell id="7gtEhEpOznMv9OEopn4y-29" value="+ accept_visitor(self, visitor): NoneType" style="text;strokeColor=none;fillColor=none;align=left;verticalAlign=top;spacingLeft=4;spacingRight=4;overflow=hidden;rotatable=0;points=[[0,0.5],[1,0.5]];portConstraint=eastwest;" vertex="1" parent="7gtEhEpOznMv9OEopn4y-21">
          <mxGeometry y="138" width="560" height="26" as="geometry" />
        </mxCell>
        <mxCell id="7gtEhEpOznMv9OEopn4y-30" value="Relation" style="swimlane;fontStyle=1;align=center;verticalAlign=top;childLayout=stackLayout;horizontal=1;startSize=26;horizontalStack=0;resizeParent=1;resizeParentMax=0;resizeLast=0;collapsible=1;marginBottom=0;" vertex="1" parent="7gtEhEpOznMv9OEopn4y-2">
          <mxGeometry x="430" y="430" width="560" height="112" as="geometry">
            <mxRectangle x="430" y="430" width="80" height="26" as="alternateBounds" />
          </mxGeometry>
        </mxCell>
        <mxCell id="7gtEhEpOznMv9OEopn4y-31" value="" style="line;strokeWidth=1;fillColor=none;align=left;verticalAlign=middle;spacingTop=-1;spacingLeft=3;spacingRight=3;rotatable=0;labelPosition=right;points=[];portConstraint=eastwest;" vertex="1" parent="7gtEhEpOznMv9OEopn4y-30">
          <mxGeometry y="26" width="560" height="8" as="geometry" />
        </mxCell>
        <mxCell id="7gtEhEpOznMv9OEopn4y-32" value="+ __init__(self, parent, child, relationship, association=None, lazy=True): NoneType" style="text;strokeColor=none;fillColor=none;align=left;verticalAlign=top;spacingLeft=4;spacingRight=4;overflow=hidden;rotatable=0;points=[[0,0.5],[1,0.5]];portConstraint=eastwest;" vertex="1" parent="7gtEhEpOznMv9OEopn4y-30">
          <mxGeometry y="34" width="560" height="26" as="geometry" />
        </mxCell>
        <mxCell id="7gtEhEpOznMv9OEopn4y-35" value="Extends" style="endArrow=block;endSize=16;endFill=0;html=1;rounded=0;" edge="1" parent="7gtEhEpOznMv9OEopn4y-30" target="7gtEhEpOznMv9OEopn4y-3">
          <mxGeometry width="160" relative="1" as="geometry">
            <mxPoint y="50" as="sourcePoint" />
            <mxPoint x="160" y="50" as="targetPoint" />
          </mxGeometry>
        </mxCell>
        <mxCell id="7gtEhEpOznMv9OEopn4y-33" value="+ accept_visitor(self, visitor): NoneType" style="text;strokeColor=none;fillColor=none;align=left;verticalAlign=top;spacingLeft=4;spacingRight=4;overflow=hidden;rotatable=0;points=[[0,0.5],[1,0.5]];portConstraint=eastwest;" vertex="1" parent="7gtEhEpOznMv9OEopn4y-30">
          <mxGeometry y="60" width="560" height="26" as="geometry" />
        </mxCell>
        <mxCell id="7gtEhEpOznMv9OEopn4y-34" value="+ _set_parent(self, table): NoneType" style="text;strokeColor=none;fillColor=none;align=left;verticalAlign=top;spacingLeft=4;spacingRight=4;overflow=hidden;rotatable=0;points=[[0,0.5],[1,0.5]];portConstraint=eastwest;" vertex="1" parent="7gtEhEpOznMv9OEopn4y-30">
          <mxGeometry y="86" width="560" height="26" as="geometry" />
        </mxCell>
        <mxCell id="7gtEhEpOznMv9OEopn4y-36" value="Sequence" style="swimlane;fontStyle=1;align=center;verticalAlign=top;childLayout=stackLayout;horizontal=1;startSize=26;horizontalStack=0;resizeParent=1;resizeParentMax=0;resizeLast=0;collapsible=1;marginBottom=0;" vertex="1" parent="7gtEhEpOznMv9OEopn4y-2">
          <mxGeometry x="430" y="581" width="560" height="86" as="geometry">
            <mxRectangle x="430" y="430" width="80" height="26" as="alternateBounds" />
          </mxGeometry>
        </mxCell>
        <mxCell id="7gtEhEpOznMv9OEopn4y-37" value="" style="line;strokeWidth=1;fillColor=none;align=left;verticalAlign=middle;spacingTop=-1;spacingLeft=3;spacingRight=3;rotatable=0;labelPosition=right;points=[];portConstraint=eastwest;" vertex="1" parent="7gtEhEpOznMv9OEopn4y-36">
          <mxGeometry y="26" width="560" height="8" as="geometry" />
        </mxCell>
        <mxCell id="7gtEhEpOznMv9OEopn4y-39" value="Extends" style="endArrow=block;endSize=16;endFill=0;html=1;rounded=0;" edge="1" parent="7gtEhEpOznMv9OEopn4y-36" target="7gtEhEpOznMv9OEopn4y-3">
          <mxGeometry width="160" relative="1" as="geometry">
            <mxPoint y="50" as="sourcePoint" />
            <mxPoint x="-320" y="-442.3529411764706" as="targetPoint" />
          </mxGeometry>
        </mxCell>
        <mxCell id="7gtEhEpOznMv9OEopn4y-41" value="+ _set_parent(self, column, key): NoneType" style="text;strokeColor=none;fillColor=none;align=left;verticalAlign=top;spacingLeft=4;spacingRight=4;overflow=hidden;rotatable=0;points=[[0,0.5],[1,0.5]];portConstraint=eastwest;" vertex="1" parent="7gtEhEpOznMv9OEopn4y-36">
          <mxGeometry y="34" width="560" height="26" as="geometry" />
        </mxCell>
        <mxCell id="7gtEhEpOznMv9OEopn4y-40" value="+ accept_visitor(self, visitor): NoneType" style="text;strokeColor=none;fillColor=none;align=left;verticalAlign=top;spacingLeft=4;spacingRight=4;overflow=hidden;rotatable=0;points=[[0,0.5],[1,0.5]];portConstraint=eastwest;" vertex="1" parent="7gtEhEpOznMv9OEopn4y-36">
          <mxGeometry y="60" width="560" height="26" as="geometry" />
        </mxCell>
        <mxCell id="7gtEhEpOznMv9OEopn4y-42" value="SchemaEngine" style="swimlane;fontStyle=1;align=center;verticalAlign=top;childLayout=stackLayout;horizontal=1;startSize=26;horizontalStack=0;resizeParent=1;resizeParentMax=0;resizeLast=0;collapsible=1;marginBottom=0;" vertex="1" parent="7gtEhEpOznMv9OEopn4y-2">
          <mxGeometry x="60" y="719" width="360" height="86" as="geometry" />
        </mxCell>
        <mxCell id="7gtEhEpOznMv9OEopn4y-44" value="" style="line;strokeWidth=1;fillColor=none;align=left;verticalAlign=middle;spacingTop=-1;spacingLeft=3;spacingRight=3;rotatable=0;labelPosition=right;points=[];portConstraint=eastwest;" vertex="1" parent="7gtEhEpOznMv9OEopn4y-42">
          <mxGeometry y="26" width="360" height="8" as="geometry" />
        </mxCell>
        <mxCell id="7gtEhEpOznMv9OEopn4y-45" value="+ tableimpl(self, table): raise NotImplError" style="text;strokeColor=none;fillColor=none;align=left;verticalAlign=top;spacingLeft=4;spacingRight=4;overflow=hidden;rotatable=0;points=[[0,0.5],[1,0.5]];portConstraint=eastwest;" vertex="1" parent="7gtEhEpOznMv9OEopn4y-42">
          <mxGeometry y="34" width="360" height="26" as="geometry" />
        </mxCell>
        <mxCell id="7gtEhEpOznMv9OEopn4y-47" value="+ columnimpl(self, table): raise NotImplError" style="text;strokeColor=none;fillColor=none;align=left;verticalAlign=top;spacingLeft=4;spacingRight=4;overflow=hidden;rotatable=0;points=[[0,0.5],[1,0.5]];portConstraint=eastwest;" vertex="1" parent="7gtEhEpOznMv9OEopn4y-42">
          <mxGeometry y="60" width="360" height="26" as="geometry" />
        </mxCell>
        <mxCell id="7gtEhEpOznMv9OEopn4y-48" value="SchemaVisitor" style="swimlane;fontStyle=1;align=center;verticalAlign=top;childLayout=stackLayout;horizontal=1;startSize=26;horizontalStack=0;resizeParent=1;resizeParentMax=0;resizeLast=0;collapsible=1;marginBottom=0;flipH=1;direction=east;" vertex="1" parent="7gtEhEpOznMv9OEopn4y-2">
          <mxGeometry x="60" y="840" width="360" height="190" as="geometry" />
        </mxCell>
        <mxCell id="7gtEhEpOznMv9OEopn4y-50" value="" style="line;strokeWidth=1;fillColor=none;align=left;verticalAlign=middle;spacingTop=-1;spacingLeft=3;spacingRight=3;rotatable=0;labelPosition=right;points=[];portConstraint=eastwest;" vertex="1" parent="7gtEhEpOznMv9OEopn4y-48">
          <mxGeometry y="26" width="360" height="8" as="geometry" />
        </mxCell>
        <mxCell id="7gtEhEpOznMv9OEopn4y-51" value="+ visit_schema(self, schema): NoneType" style="text;strokeColor=none;fillColor=none;align=left;verticalAlign=top;spacingLeft=4;spacingRight=4;overflow=hidden;rotatable=0;points=[[0,0.5],[1,0.5]];portConstraint=eastwest;" vertex="1" parent="7gtEhEpOznMv9OEopn4y-48">
          <mxGeometry y="34" width="360" height="26" as="geometry" />
        </mxCell>
        <mxCell id="7gtEhEpOznMv9OEopn4y-52" value="+ visit_table(self, table): NoneType" style="text;strokeColor=none;fillColor=none;align=left;verticalAlign=top;spacingLeft=4;spacingRight=4;overflow=hidden;rotatable=0;points=[[0,0.5],[1,0.5]];portConstraint=eastwest;" vertex="1" parent="7gtEhEpOznMv9OEopn4y-48">
          <mxGeometry y="60" width="360" height="26" as="geometry" />
        </mxCell>
        <mxCell id="7gtEhEpOznMv9OEopn4y-54" value="+ visit_column(self, column): NoneType" style="text;strokeColor=none;fillColor=none;align=left;verticalAlign=top;spacingLeft=4;spacingRight=4;overflow=hidden;rotatable=0;points=[[0,0.5],[1,0.5]];portConstraint=eastwest;" vertex="1" parent="7gtEhEpOznMv9OEopn4y-48">
          <mxGeometry y="86" width="360" height="26" as="geometry" />
        </mxCell>
        <mxCell id="7gtEhEpOznMv9OEopn4y-53" value="+ visit_relation(self, join): NoneType" style="text;strokeColor=none;fillColor=none;align=left;verticalAlign=top;spacingLeft=4;spacingRight=4;overflow=hidden;rotatable=0;points=[[0,0.5],[1,0.5]];portConstraint=eastwest;" vertex="1" parent="7gtEhEpOznMv9OEopn4y-48">
          <mxGeometry y="112" width="360" height="26" as="geometry" />
        </mxCell>
        <mxCell id="7gtEhEpOznMv9OEopn4y-55" value="+ visit_index(self, index): NoneType" style="text;strokeColor=none;fillColor=none;align=left;verticalAlign=top;spacingLeft=4;spacingRight=4;overflow=hidden;rotatable=0;points=[[0,0.5],[1,0.5]];portConstraint=eastwest;" vertex="1" parent="7gtEhEpOznMv9OEopn4y-48">
          <mxGeometry y="138" width="360" height="26" as="geometry" />
        </mxCell>
        <mxCell id="7gtEhEpOznMv9OEopn4y-56" value="+ visit_sequence(self, sequence): NoneType" style="text;strokeColor=none;fillColor=none;align=left;verticalAlign=top;spacingLeft=4;spacingRight=4;overflow=hidden;rotatable=0;points=[[0,0.5],[1,0.5]];portConstraint=eastwest;" vertex="1" parent="7gtEhEpOznMv9OEopn4y-48">
          <mxGeometry y="164" width="360" height="26" as="geometry" />
        </mxCell>
        <mxCell id="7gtEhEpOznMv9OEopn4y-58" value="&lt;p style=&quot;margin: 0px ; margin-top: 10px ; margin-left: 10px ; text-align: left&quot;&gt;base class for an object that traverses a Schema object structure, or sub-objects within one, and acts upon each node.&lt;br&gt;&lt;/p&gt;" style="shape=note;html=1;size=15;spacingLeft=5;align=left;html=1;overflow=fill;whiteSpace=wrap;align=center;" vertex="1" parent="7gtEhEpOznMv9OEopn4y-2">
          <mxGeometry x="472" y="850" width="230" height="80" as="geometry" />
        </mxCell>
        <mxCell id="7gtEhEpOznMv9OEopn4y-60" value="" style="rounded=0;html=1;labelBackgroundColor=none;endArrow=none;dashed=1;entryX=0.002;entryY=0.04;entryDx=0;entryDy=0;entryPerimeter=0;" edge="1" source="7gtEhEpOznMv9OEopn4y-58" target="7gtEhEpOznMv9OEopn4y-48" parent="7gtEhEpOznMv9OEopn4y-2">
          <mxGeometry relative="1" as="geometry">
            <mxPoint x="473.75" y="950" as="targetPoint" />
          </mxGeometry>
        </mxCell>
        <mxCell id="7gtEhEpOznMv9OEopn4y-107" value="utils.py" style="rounded=0;whiteSpace=wrap;html=1;verticalAlign=top;" vertex="1" parent="1">
          <mxGeometry x="1208" y="110" width="860" height="1090" as="geometry" />
        </mxCell>
        <mxCell id="7gtEhEpOznMv9OEopn4y-108" value="OrderedProperties" style="swimlane;fontStyle=1;align=center;verticalAlign=top;childLayout=stackLayout;horizontal=1;startSize=26;horizontalStack=0;resizeParent=1;resizeParentMax=0;resizeLast=0;collapsible=1;marginBottom=0;" vertex="1" parent="1">
          <mxGeometry x="1240" y="140" width="270" height="190" as="geometry" />
        </mxCell>
        <mxCell id="7gtEhEpOznMv9OEopn4y-110" value="" style="line;strokeWidth=1;fillColor=none;align=left;verticalAlign=middle;spacingTop=-1;spacingLeft=3;spacingRight=3;rotatable=0;labelPosition=right;points=[];portConstraint=eastwest;" vertex="1" parent="7gtEhEpOznMv9OEopn4y-108">
          <mxGeometry y="26" width="270" height="8" as="geometry" />
        </mxCell>
        <mxCell id="7gtEhEpOznMv9OEopn4y-111" value="+Â __init__(self): NoneType" style="text;strokeColor=none;fillColor=none;align=left;verticalAlign=top;spacingLeft=4;spacingRight=4;overflow=hidden;rotatable=0;points=[[0,0.5],[1,0.5]];portConstraint=eastwest;" vertex="1" parent="7gtEhEpOznMv9OEopn4y-108">
          <mxGeometry y="34" width="270" height="26" as="geometry" />
        </mxCell>
        <mxCell id="7gtEhEpOznMv9OEopn4y-112" value="+Â keys(self): list" style="text;strokeColor=none;fillColor=none;align=left;verticalAlign=top;spacingLeft=4;spacingRight=4;overflow=hidden;rotatable=0;points=[[0,0.5],[1,0.5]];portConstraint=eastwest;" vertex="1" parent="7gtEhEpOznMv9OEopn4y-108">
          <mxGeometry y="60" width="270" height="26" as="geometry" />
        </mxCell>
        <mxCell id="7gtEhEpOznMv9OEopn4y-113" value="+Â __iter__(self): Iterable" style="text;strokeColor=none;fillColor=none;align=left;verticalAlign=top;spacingLeft=4;spacingRight=4;overflow=hidden;rotatable=0;points=[[0,0.5],[1,0.5]];portConstraint=eastwest;" vertex="1" parent="7gtEhEpOznMv9OEopn4y-108">
          <mxGeometry y="86" width="270" height="26" as="geometry" />
        </mxCell>
        <mxCell id="FG2JcnnkycLStItWfxeJ-1" value="+Â __setitem__(self, key, object): NoneType" style="text;strokeColor=none;fillColor=none;align=left;verticalAlign=top;spacingLeft=4;spacingRight=4;overflow=hidden;rotatable=0;points=[[0,0.5],[1,0.5]];portConstraint=eastwest;" vertex="1" parent="7gtEhEpOznMv9OEopn4y-108">
          <mxGeometry y="112" width="270" height="26" as="geometry" />
        </mxCell>
        <mxCell id="FG2JcnnkycLStItWfxeJ-2" value="+Â __getitem__(self, key): NoneType" style="text;strokeColor=none;fillColor=none;align=left;verticalAlign=top;spacingLeft=4;spacingRight=4;overflow=hidden;rotatable=0;points=[[0,0.5],[1,0.5]];portConstraint=eastwest;" vertex="1" parent="7gtEhEpOznMv9OEopn4y-108">
          <mxGeometry y="138" width="270" height="26" as="geometry" />
        </mxCell>
        <mxCell id="FG2JcnnkycLStItWfxeJ-3" value="+Â __getattr__(self, key, object): NoneType" style="text;strokeColor=none;fillColor=none;align=left;verticalAlign=top;spacingLeft=4;spacingRight=4;overflow=hidden;rotatable=0;points=[[0,0.5],[1,0.5]];portConstraint=eastwest;" vertex="1" parent="7gtEhEpOznMv9OEopn4y-108">
          <mxGeometry y="164" width="270" height="26" as="geometry" />
        </mxCell>
        <mxCell id="FG2JcnnkycLStItWfxeJ-4" value="OrderedDict(dict)" style="swimlane;fontStyle=1;align=center;verticalAlign=top;childLayout=stackLayout;horizontal=1;startSize=26;horizontalStack=0;resizeParent=1;resizeParentMax=0;resizeLast=0;collapsible=1;marginBottom=0;" vertex="1" parent="1">
          <mxGeometry x="1240" y="363" width="270" height="346" as="geometry" />
        </mxCell>
        <mxCell id="FG2JcnnkycLStItWfxeJ-6" value="" style="line;strokeWidth=1;fillColor=none;align=left;verticalAlign=middle;spacingTop=-1;spacingLeft=3;spacingRight=3;rotatable=0;labelPosition=right;points=[];portConstraint=eastwest;" vertex="1" parent="FG2JcnnkycLStItWfxeJ-4">
          <mxGeometry y="26" width="270" height="8" as="geometry" />
        </mxCell>
        <mxCell id="FG2JcnnkycLStItWfxeJ-7" value="+Â __init__(self, values=None): NoneType" style="text;strokeColor=none;fillColor=none;align=left;verticalAlign=top;spacingLeft=4;spacingRight=4;overflow=hidden;rotatable=0;points=[[0,0.5],[1,0.5]];portConstraint=eastwest;" vertex="1" parent="FG2JcnnkycLStItWfxeJ-4">
          <mxGeometry y="34" width="270" height="26" as="geometry" />
        </mxCell>
        <mxCell id="FG2JcnnkycLStItWfxeJ-8" value="+Â keys(self): list" style="text;strokeColor=none;fillColor=none;align=left;verticalAlign=top;spacingLeft=4;spacingRight=4;overflow=hidden;rotatable=0;points=[[0,0.5],[1,0.5]];portConstraint=eastwest;" vertex="1" parent="FG2JcnnkycLStItWfxeJ-4">
          <mxGeometry y="60" width="270" height="26" as="geometry" />
        </mxCell>
        <mxCell id="FG2JcnnkycLStItWfxeJ-9" value="+Â update(self, dict): NoneType" style="text;strokeColor=none;fillColor=none;align=left;verticalAlign=top;spacingLeft=4;spacingRight=4;overflow=hidden;rotatable=0;points=[[0,0.5],[1,0.5]];portConstraint=eastwest;" vertex="1" parent="FG2JcnnkycLStItWfxeJ-4">
          <mxGeometry y="86" width="270" height="26" as="geometry" />
        </mxCell>
        <mxCell id="FG2JcnnkycLStItWfxeJ-10" value="+Â setdefault(self, key, value): Any" style="text;strokeColor=none;fillColor=none;align=left;verticalAlign=top;spacingLeft=4;spacingRight=4;overflow=hidden;rotatable=0;points=[[0,0.5],[1,0.5]];portConstraint=eastwest;" vertex="1" parent="FG2JcnnkycLStItWfxeJ-4">
          <mxGeometry y="112" width="270" height="26" as="geometry" />
        </mxCell>
        <mxCell id="FG2JcnnkycLStItWfxeJ-11" value="+Â values(self): map | list (py2)Â " style="text;strokeColor=none;fillColor=none;align=left;verticalAlign=top;spacingLeft=4;spacingRight=4;overflow=hidden;rotatable=0;points=[[0,0.5],[1,0.5]];portConstraint=eastwest;" vertex="1" parent="FG2JcnnkycLStItWfxeJ-4">
          <mxGeometry y="138" width="270" height="26" as="geometry" />
        </mxCell>
        <mxCell id="FG2JcnnkycLStItWfxeJ-12" value="+Â __iter__(self): Iterable" style="text;strokeColor=none;fillColor=none;align=left;verticalAlign=top;spacingLeft=4;spacingRight=4;overflow=hidden;rotatable=0;points=[[0,0.5],[1,0.5]];portConstraint=eastwest;" vertex="1" parent="FG2JcnnkycLStItWfxeJ-4">
          <mxGeometry y="164" width="270" height="26" as="geometry" />
        </mxCell>
        <mxCell id="FG2JcnnkycLStItWfxeJ-15" value="+ itervalues(self): Iterable" style="text;strokeColor=none;fillColor=none;align=left;verticalAlign=top;spacingLeft=4;spacingRight=4;overflow=hidden;rotatable=0;points=[[0,0.5],[1,0.5]];portConstraint=eastwest;" vertex="1" parent="FG2JcnnkycLStItWfxeJ-4">
          <mxGeometry y="190" width="270" height="26" as="geometry" />
        </mxCell>
        <mxCell id="FG2JcnnkycLStItWfxeJ-13" value="+ iterkeys(self): Iterable" style="text;strokeColor=none;fillColor=none;align=left;verticalAlign=top;spacingLeft=4;spacingRight=4;overflow=hidden;rotatable=0;points=[[0,0.5],[1,0.5]];portConstraint=eastwest;" vertex="1" parent="FG2JcnnkycLStItWfxeJ-4">
          <mxGeometry y="216" width="270" height="26" as="geometry" />
        </mxCell>
        <mxCell id="FG2JcnnkycLStItWfxeJ-18" value="+ iteritems(self): Iterable" style="text;strokeColor=none;fillColor=none;align=left;verticalAlign=top;spacingLeft=4;spacingRight=4;overflow=hidden;rotatable=0;points=[[0,0.5],[1,0.5]];portConstraint=eastwest;" vertex="1" parent="FG2JcnnkycLStItWfxeJ-4">
          <mxGeometry y="242" width="270" height="26" as="geometry" />
        </mxCell>
        <mxCell id="FG2JcnnkycLStItWfxeJ-14" value="+Â __setitem__(self, key, object): NoneType" style="text;strokeColor=none;fillColor=none;align=left;verticalAlign=top;spacingLeft=4;spacingRight=4;overflow=hidden;rotatable=0;points=[[0,0.5],[1,0.5]];portConstraint=eastwest;" vertex="1" parent="FG2JcnnkycLStItWfxeJ-4">
          <mxGeometry y="268" width="270" height="26" as="geometry" />
        </mxCell>
        <mxCell id="FG2JcnnkycLStItWfxeJ-16" value="+Â __getitem__(self, key): Any" style="text;strokeColor=none;fillColor=none;align=left;verticalAlign=top;spacingLeft=4;spacingRight=4;overflow=hidden;rotatable=0;points=[[0,0.5],[1,0.5]];portConstraint=eastwest;" vertex="1" parent="FG2JcnnkycLStItWfxeJ-4">
          <mxGeometry y="294" width="270" height="26" as="geometry" />
        </mxCell>
        <mxCell id="FG2JcnnkycLStItWfxeJ-17" value="+Â __iter__(self): Iterable" style="text;strokeColor=none;fillColor=none;align=left;verticalAlign=top;spacingLeft=4;spacingRight=4;overflow=hidden;rotatable=0;points=[[0,0.5],[1,0.5]];portConstraint=eastwest;" vertex="1" parent="FG2JcnnkycLStItWfxeJ-4">
          <mxGeometry y="320" width="270" height="26" as="geometry" />
        </mxCell>
        <mxCell id="FG2JcnnkycLStItWfxeJ-19" value="ThreadLocal" style="swimlane;fontStyle=1;align=center;verticalAlign=top;childLayout=stackLayout;horizontal=1;startSize=26;horizontalStack=0;resizeParent=1;resizeParentMax=0;resizeLast=0;collapsible=1;marginBottom=0;" vertex="1" parent="1">
          <mxGeometry x="1240" y="730" width="270" height="112" as="geometry" />
        </mxCell>
        <mxCell id="FG2JcnnkycLStItWfxeJ-21" value="" style="line;strokeWidth=1;fillColor=none;align=left;verticalAlign=middle;spacingTop=-1;spacingLeft=3;spacingRight=3;rotatable=0;labelPosition=right;points=[];portConstraint=eastwest;" vertex="1" parent="FG2JcnnkycLStItWfxeJ-19">
          <mxGeometry y="26" width="270" height="8" as="geometry" />
        </mxCell>
        <mxCell id="FG2JcnnkycLStItWfxeJ-24" value="+ __init__(self): NoneType" style="text;strokeColor=none;fillColor=none;align=left;verticalAlign=top;spacingLeft=4;spacingRight=4;overflow=hidden;rotatable=0;points=[[0,0.5],[1,0.5]];portConstraint=eastwest;" vertex="1" parent="FG2JcnnkycLStItWfxeJ-19">
          <mxGeometry y="34" width="270" height="26" as="geometry" />
        </mxCell>
        <mxCell id="FG2JcnnkycLStItWfxeJ-22" value="+ __getattribute__(self, key): AnyÂ " style="text;strokeColor=none;fillColor=none;align=left;verticalAlign=top;spacingLeft=4;spacingRight=4;overflow=hidden;rotatable=0;points=[[0,0.5],[1,0.5]];portConstraint=eastwest;" vertex="1" parent="FG2JcnnkycLStItWfxeJ-19">
          <mxGeometry y="60" width="270" height="26" as="geometry" />
        </mxCell>
        <mxCell id="FG2JcnnkycLStItWfxeJ-23" value="+ __setattr__(self, key, object): NoneType" style="text;strokeColor=none;fillColor=none;align=left;verticalAlign=top;spacingLeft=4;spacingRight=4;overflow=hidden;rotatable=0;points=[[0,0.5],[1,0.5]];portConstraint=eastwest;" vertex="1" parent="FG2JcnnkycLStItWfxeJ-19">
          <mxGeometry y="86" width="270" height="26" as="geometry" />
        </mxCell>
      </root>
    </mxGraphModel>
  </diagram>
  <diagram id="_YUCq5r3BdB4yKuRJoca" name="origin/rel_0_1">
    <mxGraphModel dx="782" dy="371" grid="1" gridSize="10" guides="1" tooltips="1" connect="1" arrows="1" fold="1" page="1" pageScale="1" pageWidth="827" pageHeight="1169" math="0" shadow="0">
      <root>
        <mxCell id="vpa0kILl3NINFMkjxwOF-0" />
        <mxCell id="vpa0kILl3NINFMkjxwOF-1" parent="vpa0kILl3NINFMkjxwOF-0" />
      </root>
    </mxGraphModel>
  </diagram>
</mxfile>
